<svg width="467" height="73" viewBox="0 0 467 73" fill="none" xmlns="http://www.w3.org/2000/svg">
<mask id="path-1-outside-1_180_123" maskUnits="userSpaceOnUse" x="7" y="9" width="452" height="53" fill="black">
<rect fill="white" x="7" y="9" width="452" height="53"/>
<path d="M14.578 58.64C13.298 58.64 12.274 58.2987 11.506 57.616C10.738 56.9333 10.354 55.9947 10.354 54.8V22.672C10.354 19.6853 11.2073 17.36 12.914 15.696C14.6633 14.032 17.074 13.2 20.146 13.2H30.962C37.4473 13.2 42.3753 14.544 45.746 17.232C49.1167 19.92 50.802 23.8667 50.802 29.072C50.802 34.2773 49.1593 38.224 45.874 40.912C42.5887 43.6 37.746 44.944 31.346 44.944H18.866V54.8C18.866 55.952 18.4607 56.8907 17.65 57.616C16.882 58.2987 15.858 58.64 14.578 58.64ZM31.282 38.352C38.578 38.352 42.226 35.2587 42.226 29.072C42.226 22.8853 38.578 19.792 31.282 19.792H21.618C20.7647 19.792 20.082 20.0693 19.57 20.624C19.1007 21.1787 18.866 21.9467 18.866 22.928V38.352H31.282ZM66.698 58.64C65.418 58.64 64.394 58.2987 63.626 57.616C62.858 56.9333 62.474 55.9947 62.474 54.8V16.4C62.474 15.2053 62.858 14.2667 63.626 13.584C64.394 12.9013 65.418 12.56 66.698 12.56C67.978 12.56 69.002 12.9227 69.77 13.648C70.5807 14.3307 70.986 15.248 70.986 16.4V31.696H93.962V16.4C93.962 15.248 94.346 14.3307 95.114 13.648C95.9247 12.9227 96.97 12.56 98.25 12.56C99.53 12.56 100.554 12.9013 101.322 13.584C102.09 14.2667 102.474 15.2053 102.474 16.4V54.8C102.474 55.9947 102.09 56.9333 101.322 57.616C100.554 58.2987 99.53 58.64 98.25 58.64C96.97 58.64 95.9247 58.2987 95.114 57.616C94.346 56.8907 93.962 55.952 93.962 54.8V38.288H70.986V54.8C70.986 55.952 70.5807 56.8907 69.77 57.616C69.002 58.2987 67.978 58.64 66.698 58.64ZM291.211 58.64C287.03 58.64 283.104 57.9573 279.435 56.592C275.766 55.184 272.587 53.1787 269.899 50.576C269.259 49.936 268.939 49.2107 268.939 48.4C268.939 47.4613 269.366 46.5653 270.219 45.712C270.902 45.0293 271.648 44.688 272.459 44.688C273.312 44.688 274.336 45.1787 275.531 46.16C277.536 47.9947 279.904 49.424 282.635 50.448C285.408 51.4293 288.267 51.92 291.211 51.92C294.027 51.92 296.224 51.4507 297.803 50.512C299.382 49.5307 300.171 48.1653 300.171 46.416C300.171 44.5813 299.318 43.1093 297.611 42C295.904 40.848 293.003 39.824 288.907 38.928C282.464 37.52 277.771 35.664 274.827 33.36C271.926 31.056 270.475 28.0907 270.475 24.464C270.475 22.16 271.243 20.112 272.779 18.32C274.315 16.4853 276.448 15.0773 279.179 14.096C281.952 13.072 285.11 12.56 288.651 12.56C292.619 12.56 296.139 13.2213 299.211 14.544C302.326 15.824 304.694 17.6373 306.315 19.984C306.87 20.88 307.147 21.648 307.147 22.288C307.104 23.3547 306.571 24.272 305.547 25.04C304.992 25.424 304.352 25.616 303.627 25.616C302.304 25.616 301.216 25.104 300.363 24.08C299.126 22.5867 297.462 21.4133 295.371 20.56C293.323 19.7067 291.083 19.28 288.651 19.28C285.622 19.28 283.254 19.7493 281.547 20.688C279.883 21.584 279.051 22.8427 279.051 24.464C279.051 26.0853 279.862 27.4293 281.483 28.496C283.147 29.52 286.006 30.5013 290.059 31.44C294.539 32.5067 298.144 33.7227 300.875 35.088C303.606 36.4107 305.59 37.9893 306.827 39.824C308.107 41.6587 308.747 43.856 308.747 46.416C308.747 48.848 308.022 51.0027 306.571 52.88C305.12 54.7147 303.072 56.144 300.427 57.168C297.782 58.1493 294.71 58.64 291.211 58.64ZM330.626 58C327.384 58 324.866 57.1467 323.074 55.44C321.282 53.7333 320.386 51.344 320.386 48.272V16.4C320.386 15.2053 320.77 14.2667 321.538 13.584C322.306 12.9013 323.33 12.56 324.61 12.56C325.89 12.56 326.914 12.9227 327.682 13.648C328.493 14.3307 328.898 15.248 328.898 16.4V48.272C328.898 49.2533 329.133 50.0213 329.602 50.576C330.114 51.1307 330.797 51.408 331.65 51.408H352.13C353.41 51.408 354.392 51.7067 355.074 52.304C355.757 52.8587 356.098 53.6693 356.098 54.736C356.098 55.76 355.736 56.5707 355.01 57.168C354.328 57.7227 353.368 58 352.13 58H330.626ZM384.927 58.64C379.935 58.64 375.626 57.68 371.999 55.76C368.415 53.7973 365.685 51.088 363.807 47.632C361.93 44.1333 360.991 40.1227 360.991 35.6C360.991 31.0773 361.93 27.088 363.807 23.632C365.685 20.1333 368.415 17.424 371.999 15.504C375.626 13.5413 379.935 12.56 384.927 12.56C389.919 12.56 394.207 13.5413 397.791 15.504C401.418 17.424 404.17 20.1333 406.047 23.632C407.925 27.088 408.863 31.0773 408.863 35.6C408.863 40.1227 407.925 44.1333 406.047 47.632C404.17 51.088 401.418 53.7973 397.791 55.76C394.207 57.68 389.919 58.64 384.927 58.64ZM384.927 51.92C389.791 51.92 393.567 50.4693 396.255 47.568C398.943 44.624 400.287 40.6347 400.287 35.6C400.287 30.5227 398.879 26.5333 396.063 23.632C393.29 20.7307 389.365 19.28 384.287 19.28C379.637 19.28 376.01 20.7733 373.407 23.76C370.847 26.704 369.567 30.6507 369.567 35.6C369.567 40.6347 370.911 44.624 373.599 47.568C376.287 50.4693 380.063 51.92 384.927 51.92ZM434.938 58.64C433.658 58.64 432.634 58.2987 431.866 57.616C431.098 56.9333 430.714 55.9947 430.714 54.8V19.792H418.362C417.125 19.792 416.143 19.5147 415.418 18.96C414.735 18.3627 414.394 17.552 414.394 16.528C414.394 15.4613 414.735 14.6507 415.418 14.096C416.101 13.4987 417.082 13.2 418.362 13.2H451.578C452.858 13.2 453.839 13.4987 454.522 14.096C455.205 14.6507 455.546 15.4613 455.546 16.528C455.546 17.552 455.183 18.3627 454.458 18.96C453.775 19.5147 452.815 19.792 451.578 19.792H439.226V54.8C439.226 55.952 438.821 56.8907 438.01 57.616C437.242 58.2987 436.218 58.64 434.938 58.64Z"/>
<path d="M133.406 58.64C132.126 58.64 131.102 58.2987 130.334 57.616C129.566 56.9333 129.182 55.9947 129.182 54.8V19.792H116.83C115.592 19.792 114.611 19.5147 113.886 18.96C113.203 18.3627 112.862 17.552 112.862 16.528C112.862 15.4613 113.203 14.6507 113.886 14.096C114.568 13.4987 115.55 13.2 116.83 13.2H150.046C151.326 13.2 152.307 13.4987 152.99 14.096C153.672 14.6507 154.014 15.4613 154.014 16.528C154.014 17.552 153.651 18.3627 152.926 18.96C152.243 19.5147 151.283 19.792 150.046 19.792H137.694V54.8C137.694 55.952 137.288 56.8907 136.478 57.616C135.71 58.2987 134.686 58.64 133.406 58.64ZM183.51 58.64C178.518 58.64 174.209 57.68 170.582 55.76C166.998 53.7973 164.267 51.088 162.39 47.632C160.513 44.1333 159.574 40.1227 159.574 35.6C159.574 31.0773 160.513 27.088 162.39 23.632C164.267 20.1333 166.998 17.424 170.582 15.504C174.209 13.5413 178.518 12.56 183.51 12.56C188.502 12.56 192.79 13.5413 196.374 15.504C200.001 17.424 202.753 20.1333 204.63 23.632C206.507 27.088 207.446 31.0773 207.446 35.6C207.446 40.1227 206.507 44.1333 204.63 47.632C202.753 51.088 200.001 53.7973 196.374 55.76C192.79 57.68 188.502 58.64 183.51 58.64ZM183.51 51.92C188.374 51.92 192.15 50.4693 194.838 47.568C197.526 44.624 198.87 40.6347 198.87 35.6C198.87 30.5227 197.462 26.5333 194.646 23.632C191.873 20.7307 187.947 19.28 182.87 19.28C178.219 19.28 174.593 20.7733 171.99 23.76C169.43 26.704 168.15 30.6507 168.15 35.6C168.15 40.6347 169.494 44.624 172.182 47.568C174.87 50.4693 178.646 51.92 183.51 51.92ZM223.308 58.64C222.028 58.64 221.004 58.2987 220.236 57.616C219.468 56.9333 219.084 55.9947 219.084 54.8V22.672C219.084 19.6853 219.937 17.36 221.644 15.696C223.393 14.032 225.804 13.2 228.876 13.2H239.692C246.177 13.2 251.105 14.544 254.476 17.232C257.847 19.92 259.532 23.8667 259.532 29.072C259.532 34.2773 257.889 38.224 254.604 40.912C251.319 43.6 246.476 44.944 240.076 44.944H227.596V54.8C227.596 55.952 227.191 56.8907 226.38 57.616C225.612 58.2987 224.588 58.64 223.308 58.64ZM240.012 38.352C247.308 38.352 250.956 35.2587 250.956 29.072C250.956 22.8853 247.308 19.792 240.012 19.792H230.348C229.495 19.792 228.812 20.0693 228.3 20.624C227.831 21.1787 227.596 21.9467 227.596 22.928V38.352H240.012Z"/>
</mask>
<path d="M14.578 58.64C13.298 58.64 12.274 58.2987 11.506 57.616C10.738 56.9333 10.354 55.9947 10.354 54.8V22.672C10.354 19.6853 11.2073 17.36 12.914 15.696C14.6633 14.032 17.074 13.2 20.146 13.2H30.962C37.4473 13.2 42.3753 14.544 45.746 17.232C49.1167 19.92 50.802 23.8667 50.802 29.072C50.802 34.2773 49.1593 38.224 45.874 40.912C42.5887 43.6 37.746 44.944 31.346 44.944H18.866V54.8C18.866 55.952 18.4607 56.8907 17.65 57.616C16.882 58.2987 15.858 58.64 14.578 58.64ZM31.282 38.352C38.578 38.352 42.226 35.2587 42.226 29.072C42.226 22.8853 38.578 19.792 31.282 19.792H21.618C20.7647 19.792 20.082 20.0693 19.57 20.624C19.1007 21.1787 18.866 21.9467 18.866 22.928V38.352H31.282ZM66.698 58.64C65.418 58.64 64.394 58.2987 63.626 57.616C62.858 56.9333 62.474 55.9947 62.474 54.8V16.4C62.474 15.2053 62.858 14.2667 63.626 13.584C64.394 12.9013 65.418 12.56 66.698 12.56C67.978 12.56 69.002 12.9227 69.77 13.648C70.5807 14.3307 70.986 15.248 70.986 16.4V31.696H93.962V16.4C93.962 15.248 94.346 14.3307 95.114 13.648C95.9247 12.9227 96.97 12.56 98.25 12.56C99.53 12.56 100.554 12.9013 101.322 13.584C102.09 14.2667 102.474 15.2053 102.474 16.4V54.8C102.474 55.9947 102.09 56.9333 101.322 57.616C100.554 58.2987 99.53 58.64 98.25 58.64C96.97 58.64 95.9247 58.2987 95.114 57.616C94.346 56.8907 93.962 55.952 93.962 54.8V38.288H70.986V54.8C70.986 55.952 70.5807 56.8907 69.77 57.616C69.002 58.2987 67.978 58.64 66.698 58.64ZM291.211 58.64C287.03 58.64 283.104 57.9573 279.435 56.592C275.766 55.184 272.587 53.1787 269.899 50.576C269.259 49.936 268.939 49.2107 268.939 48.4C268.939 47.4613 269.366 46.5653 270.219 45.712C270.902 45.0293 271.648 44.688 272.459 44.688C273.312 44.688 274.336 45.1787 275.531 46.16C277.536 47.9947 279.904 49.424 282.635 50.448C285.408 51.4293 288.267 51.92 291.211 51.92C294.027 51.92 296.224 51.4507 297.803 50.512C299.382 49.5307 300.171 48.1653 300.171 46.416C300.171 44.5813 299.318 43.1093 297.611 42C295.904 40.848 293.003 39.824 288.907 38.928C282.464 37.52 277.771 35.664 274.827 33.36C271.926 31.056 270.475 28.0907 270.475 24.464C270.475 22.16 271.243 20.112 272.779 18.32C274.315 16.4853 276.448 15.0773 279.179 14.096C281.952 13.072 285.11 12.56 288.651 12.56C292.619 12.56 296.139 13.2213 299.211 14.544C302.326 15.824 304.694 17.6373 306.315 19.984C306.87 20.88 307.147 21.648 307.147 22.288C307.104 23.3547 306.571 24.272 305.547 25.04C304.992 25.424 304.352 25.616 303.627 25.616C302.304 25.616 301.216 25.104 300.363 24.08C299.126 22.5867 297.462 21.4133 295.371 20.56C293.323 19.7067 291.083 19.28 288.651 19.28C285.622 19.28 283.254 19.7493 281.547 20.688C279.883 21.584 279.051 22.8427 279.051 24.464C279.051 26.0853 279.862 27.4293 281.483 28.496C283.147 29.52 286.006 30.5013 290.059 31.44C294.539 32.5067 298.144 33.7227 300.875 35.088C303.606 36.4107 305.59 37.9893 306.827 39.824C308.107 41.6587 308.747 43.856 308.747 46.416C308.747 48.848 308.022 51.0027 306.571 52.88C305.12 54.7147 303.072 56.144 300.427 57.168C297.782 58.1493 294.71 58.64 291.211 58.64ZM330.626 58C327.384 58 324.866 57.1467 323.074 55.44C321.282 53.7333 320.386 51.344 320.386 48.272V16.4C320.386 15.2053 320.77 14.2667 321.538 13.584C322.306 12.9013 323.33 12.56 324.61 12.56C325.89 12.56 326.914 12.9227 327.682 13.648C328.493 14.3307 328.898 15.248 328.898 16.4V48.272C328.898 49.2533 329.133 50.0213 329.602 50.576C330.114 51.1307 330.797 51.408 331.65 51.408H352.13C353.41 51.408 354.392 51.7067 355.074 52.304C355.757 52.8587 356.098 53.6693 356.098 54.736C356.098 55.76 355.736 56.5707 355.01 57.168C354.328 57.7227 353.368 58 352.13 58H330.626ZM384.927 58.64C379.935 58.64 375.626 57.68 371.999 55.76C368.415 53.7973 365.685 51.088 363.807 47.632C361.93 44.1333 360.991 40.1227 360.991 35.6C360.991 31.0773 361.93 27.088 363.807 23.632C365.685 20.1333 368.415 17.424 371.999 15.504C375.626 13.5413 379.935 12.56 384.927 12.56C389.919 12.56 394.207 13.5413 397.791 15.504C401.418 17.424 404.17 20.1333 406.047 23.632C407.925 27.088 408.863 31.0773 408.863 35.6C408.863 40.1227 407.925 44.1333 406.047 47.632C404.17 51.088 401.418 53.7973 397.791 55.76C394.207 57.68 389.919 58.64 384.927 58.64ZM384.927 51.92C389.791 51.92 393.567 50.4693 396.255 47.568C398.943 44.624 400.287 40.6347 400.287 35.6C400.287 30.5227 398.879 26.5333 396.063 23.632C393.29 20.7307 389.365 19.28 384.287 19.28C379.637 19.28 376.01 20.7733 373.407 23.76C370.847 26.704 369.567 30.6507 369.567 35.6C369.567 40.6347 370.911 44.624 373.599 47.568C376.287 50.4693 380.063 51.92 384.927 51.92ZM434.938 58.64C433.658 58.64 432.634 58.2987 431.866 57.616C431.098 56.9333 430.714 55.9947 430.714 54.8V19.792H418.362C417.125 19.792 416.143 19.5147 415.418 18.96C414.735 18.3627 414.394 17.552 414.394 16.528C414.394 15.4613 414.735 14.6507 415.418 14.096C416.101 13.4987 417.082 13.2 418.362 13.2H451.578C452.858 13.2 453.839 13.4987 454.522 14.096C455.205 14.6507 455.546 15.4613 455.546 16.528C455.546 17.552 455.183 18.3627 454.458 18.96C453.775 19.5147 452.815 19.792 451.578 19.792H439.226V54.8C439.226 55.952 438.821 56.8907 438.01 57.616C437.242 58.2987 436.218 58.64 434.938 58.64Z" fill="#D46006"/>
<path d="M133.406 58.64C132.126 58.64 131.102 58.2987 130.334 57.616C129.566 56.9333 129.182 55.9947 129.182 54.8V19.792H116.83C115.592 19.792 114.611 19.5147 113.886 18.96C113.203 18.3627 112.862 17.552 112.862 16.528C112.862 15.4613 113.203 14.6507 113.886 14.096C114.568 13.4987 115.55 13.2 116.83 13.2H150.046C151.326 13.2 152.307 13.4987 152.99 14.096C153.672 14.6507 154.014 15.4613 154.014 16.528C154.014 17.552 153.651 18.3627 152.926 18.96C152.243 19.5147 151.283 19.792 150.046 19.792H137.694V54.8C137.694 55.952 137.288 56.8907 136.478 57.616C135.71 58.2987 134.686 58.64 133.406 58.64ZM183.51 58.64C178.518 58.64 174.209 57.68 170.582 55.76C166.998 53.7973 164.267 51.088 162.39 47.632C160.513 44.1333 159.574 40.1227 159.574 35.6C159.574 31.0773 160.513 27.088 162.39 23.632C164.267 20.1333 166.998 17.424 170.582 15.504C174.209 13.5413 178.518 12.56 183.51 12.56C188.502 12.56 192.79 13.5413 196.374 15.504C200.001 17.424 202.753 20.1333 204.63 23.632C206.507 27.088 207.446 31.0773 207.446 35.6C207.446 40.1227 206.507 44.1333 204.63 47.632C202.753 51.088 200.001 53.7973 196.374 55.76C192.79 57.68 188.502 58.64 183.51 58.64ZM183.51 51.92C188.374 51.92 192.15 50.4693 194.838 47.568C197.526 44.624 198.87 40.6347 198.87 35.6C198.87 30.5227 197.462 26.5333 194.646 23.632C191.873 20.7307 187.947 19.28 182.87 19.28C178.219 19.28 174.593 20.7733 171.99 23.76C169.43 26.704 168.15 30.6507 168.15 35.6C168.15 40.6347 169.494 44.624 172.182 47.568C174.87 50.4693 178.646 51.92 183.51 51.92ZM223.308 58.64C222.028 58.64 221.004 58.2987 220.236 57.616C219.468 56.9333 219.084 55.9947 219.084 54.8V22.672C219.084 19.6853 219.937 17.36 221.644 15.696C223.393 14.032 225.804 13.2 228.876 13.2H239.692C246.177 13.2 251.105 14.544 254.476 17.232C257.847 19.92 259.532 23.8667 259.532 29.072C259.532 34.2773 257.889 38.224 254.604 40.912C251.319 43.6 246.476 44.944 240.076 44.944H227.596V54.8C227.596 55.952 227.191 56.8907 226.38 57.616C225.612 58.2987 224.588 58.64 223.308 58.64ZM240.012 38.352C247.308 38.352 250.956 35.2587 250.956 29.072C250.956 22.8853 247.308 19.792 240.012 19.792H230.348C229.495 19.792 228.812 20.0693 228.3 20.624C227.831 21.1787 227.596 21.9467 227.596 22.928V38.352H240.012Z" fill="black"/>
<path d="M11.506 57.616L9.51291 59.8582L9.51291 59.8582L11.506 57.616ZM12.914 15.696L10.8464 13.5223L10.833 13.5351L10.8197 13.548L12.914 15.696ZM45.874 40.912L43.9743 38.5901L43.9743 38.5901L45.874 40.912ZM18.866 44.944V41.944H15.866V44.944H18.866ZM17.65 57.616L19.6431 59.8582L19.6504 59.8517L17.65 57.616ZM19.57 20.624L17.3656 18.5892L17.3217 18.6367L17.2798 18.6862L19.57 20.624ZM18.866 38.352H15.866V41.352H18.866V38.352ZM14.578 55.64C13.8452 55.64 13.5923 55.4566 13.4991 55.3738L9.51291 59.8582C10.9557 61.1407 12.7508 61.64 14.578 61.64V55.64ZM13.4991 55.3738C13.4526 55.3324 13.4349 55.3039 13.4186 55.2641C13.3979 55.2134 13.354 55.076 13.354 54.8H7.354C7.354 56.698 7.99799 58.5116 9.51291 59.8582L13.4991 55.3738ZM13.354 54.8V22.672H7.354V54.8H13.354ZM13.354 22.672C13.354 20.2773 14.0195 18.8081 15.0083 17.844L10.8197 13.548C8.39517 15.9119 7.354 19.0933 7.354 22.672H13.354ZM14.9816 17.8697C16.0329 16.8697 17.6252 16.2 20.146 16.2V10.2C16.5228 10.2 13.2938 11.1943 10.8464 13.5223L14.9816 17.8697ZM20.146 16.2H30.962V10.2H20.146V16.2ZM30.962 16.2C37.0955 16.2 41.2457 17.4803 43.8755 19.5775L47.6165 14.8865C43.505 11.6077 37.7991 10.2 30.962 10.2V16.2ZM43.8755 19.5775C46.3829 21.577 47.802 24.5696 47.802 29.072H53.802C53.802 23.1638 51.8505 18.263 47.6165 14.8865L43.8755 19.5775ZM47.802 29.072C47.802 33.6013 46.4068 36.5999 43.9743 38.5901L47.7737 43.2339C51.9119 39.8481 53.802 34.9534 53.802 29.072H47.802ZM43.9743 38.5901C41.4379 40.6653 37.3906 41.944 31.346 41.944V47.944C38.1014 47.944 43.7394 46.5347 47.7737 43.2339L43.9743 38.5901ZM31.346 41.944H18.866V47.944H31.346V41.944ZM15.866 44.944V54.8H21.866V44.944H15.866ZM15.866 54.8C15.866 55.1555 15.783 55.261 15.6496 55.3803L19.6504 59.8517C21.1384 58.5204 21.866 56.7485 21.866 54.8H15.866ZM15.6569 55.3738C15.5637 55.4566 15.3108 55.64 14.578 55.64V61.64C16.4052 61.64 18.2003 61.1407 19.6431 59.8582L15.6569 55.3738ZM31.282 41.352C35.2827 41.352 38.8426 40.5143 41.4302 38.3201C44.1127 36.0456 45.226 32.7692 45.226 29.072H39.226C39.226 31.5615 38.5154 32.9251 37.5498 33.7439C36.4894 34.643 34.5773 35.352 31.282 35.352V41.352ZM45.226 29.072C45.226 25.3748 44.1127 22.0984 41.4302 19.8239C38.8426 17.6297 35.2827 16.792 31.282 16.792V22.792C34.5773 22.792 36.4894 23.501 37.5498 24.4001C38.5154 25.2189 39.226 26.5825 39.226 29.072H45.226ZM31.282 16.792H21.618V22.792H31.282V16.792ZM21.618 16.792C20.048 16.792 18.5225 17.3359 17.3656 18.5892L21.7744 22.6588C21.7605 22.6739 21.7359 22.6971 21.7005 22.7218C21.6648 22.7466 21.6282 22.766 21.5951 22.7794C21.5258 22.8076 21.518 22.792 21.618 22.792V16.792ZM17.2798 18.6862C16.2132 19.9467 15.866 21.4868 15.866 22.928H21.866C21.866 22.6711 21.8973 22.5377 21.9111 22.4927C21.922 22.4568 21.9149 22.4971 21.8602 22.5618L17.2798 18.6862ZM15.866 22.928V38.352H21.866V22.928H15.866ZM18.866 41.352H31.282V35.352H18.866V41.352ZM63.626 57.616L61.6329 59.8582L61.6329 59.8582L63.626 57.616ZM63.626 13.584L65.6191 15.8262L65.6191 15.8262L63.626 13.584ZM69.77 13.648L67.7101 15.829L67.7722 15.8877L67.8376 15.9427L69.77 13.648ZM70.986 31.696H67.986V34.696H70.986V31.696ZM93.962 31.696V34.696H96.962V31.696H93.962ZM95.114 13.648L97.1071 15.8902L97.1144 15.8837L95.114 13.648ZM101.322 13.584L99.3289 15.8262L99.3289 15.8262L101.322 13.584ZM101.322 57.616L103.315 59.8582L103.315 59.8582L101.322 57.616ZM95.114 57.616L93.0541 59.797L93.1162 59.8557L93.1816 59.9107L95.114 57.616ZM93.962 38.288H96.962V35.288H93.962V38.288ZM70.986 38.288V35.288H67.986V38.288H70.986ZM69.77 57.616L71.7631 59.8582L71.7704 59.8517L69.77 57.616ZM66.698 55.64C65.9652 55.64 65.7123 55.4566 65.6191 55.3738L61.6329 59.8582C63.0757 61.1407 64.8708 61.64 66.698 61.64V55.64ZM65.6191 55.3738C65.5726 55.3324 65.5549 55.3039 65.5386 55.2641C65.5179 55.2134 65.474 55.076 65.474 54.8H59.474C59.474 56.698 60.118 58.5116 61.6329 59.8582L65.6191 55.3738ZM65.474 54.8V16.4H59.474V54.8H65.474ZM65.474 16.4C65.474 16.124 65.5179 15.9865 65.5386 15.9359C65.5549 15.8961 65.5726 15.8676 65.6191 15.8262L61.6329 11.3418C60.118 12.6884 59.474 14.502 59.474 16.4H65.474ZM65.6191 15.8262C65.7123 15.7434 65.9652 15.56 66.698 15.56V9.56C64.8708 9.56 63.0757 10.0593 61.6329 11.3418L65.6191 15.8262ZM66.698 15.56C67.3835 15.56 67.6123 15.7367 67.7101 15.829L71.8299 11.467C70.3917 10.1087 68.5725 9.56 66.698 9.56V15.56ZM67.8376 15.9427C67.9138 16.0069 67.9304 16.0433 67.9379 16.0605C67.9485 16.0845 67.986 16.1798 67.986 16.4H73.986C73.986 14.4504 73.254 12.6599 71.7024 11.3533L67.8376 15.9427ZM67.986 16.4V31.696H73.986V16.4H67.986ZM70.986 34.696H93.962V28.696H70.986V34.696ZM96.962 31.696V16.4H90.962V31.696H96.962ZM96.962 16.4C96.962 16.1594 97.0013 16.0447 97.0173 16.0064C97.0299 15.9765 97.0476 15.9431 97.1071 15.8902L93.1209 11.4058C91.6308 12.7303 90.962 14.5067 90.962 16.4H96.962ZM97.1144 15.8837C97.2801 15.7355 97.57 15.56 98.25 15.56V9.56C96.37 9.56 94.5693 10.1099 93.1136 11.4123L97.1144 15.8837ZM98.25 15.56C98.9828 15.56 99.2357 15.7434 99.3289 15.8262L103.315 11.3418C101.872 10.0593 100.077 9.56 98.25 9.56V15.56ZM99.3289 15.8262C99.3754 15.8676 99.3931 15.8961 99.4094 15.9359C99.4301 15.9865 99.474 16.124 99.474 16.4H105.474C105.474 14.502 104.83 12.6884 103.315 11.3418L99.3289 15.8262ZM99.474 16.4V54.8H105.474V16.4H99.474ZM99.474 54.8C99.474 55.076 99.4301 55.2134 99.4094 55.2641C99.3931 55.3039 99.3754 55.3324 99.3289 55.3738L103.315 59.8582C104.83 58.5116 105.474 56.698 105.474 54.8H99.474ZM99.3289 55.3738C99.2357 55.4566 98.9828 55.64 98.25 55.64V61.64C100.077 61.64 101.872 61.1407 103.315 59.8582L99.3289 55.3738ZM98.25 55.64C97.5241 55.64 97.2097 55.4587 97.0464 55.3213L93.1816 59.9107C94.6397 61.1386 96.4159 61.64 98.25 61.64V55.64ZM97.1739 55.435C97.0638 55.331 96.962 55.2097 96.962 54.8H90.962C90.962 56.6943 91.6283 58.4504 93.0541 59.797L97.1739 55.435ZM96.962 54.8V38.288H90.962V54.8H96.962ZM93.962 35.288H70.986V41.288H93.962V35.288ZM67.986 38.288V54.8H73.986V38.288H67.986ZM67.986 54.8C67.986 55.1555 67.903 55.261 67.7696 55.3803L71.7704 59.8517C73.2584 58.5204 73.986 56.7485 73.986 54.8H67.986ZM67.7769 55.3738C67.6837 55.4566 67.4308 55.64 66.698 55.64V61.64C68.5252 61.64 70.3203 61.1407 71.7631 59.8582L67.7769 55.3738ZM130.334 57.616L132.327 55.3738L132.327 55.3738L130.334 57.616ZM129.182 19.792H132.182V16.792H129.182V19.792ZM113.886 18.96L111.91 21.2177L111.985 21.2829L112.063 21.3431L113.886 18.96ZM113.886 14.096L115.777 16.4243L115.82 16.3898L115.861 16.3537L113.886 14.096ZM152.99 14.096L151.014 16.3537L151.055 16.3898L151.098 16.4243L152.99 14.096ZM152.926 18.96L154.817 21.2883L154.825 21.2821L154.833 21.2758L152.926 18.96ZM137.694 19.792V16.792H134.694V19.792H137.694ZM136.478 57.616L138.471 59.8582L138.478 59.8517L136.478 57.616ZM133.406 55.64C132.673 55.64 132.42 55.4566 132.327 55.3738L128.34 59.8582C129.783 61.1407 131.578 61.64 133.406 61.64V55.64ZM132.327 55.3738C132.28 55.3324 132.262 55.3039 132.246 55.2641C132.225 55.2134 132.182 55.076 132.182 54.8H126.182C126.182 56.698 126.825 58.5116 128.34 59.8582L132.327 55.3738ZM132.182 54.8V19.792H126.182V54.8H132.182ZM129.182 16.792H116.83V22.792H129.182V16.792ZM116.83 16.792C116.019 16.792 115.752 16.6105 115.708 16.5769L112.063 21.3431C113.47 22.4188 115.165 22.792 116.83 22.792V16.792ZM115.861 16.7023C115.851 16.6939 115.855 16.6954 115.864 16.7075C115.873 16.7199 115.879 16.7323 115.882 16.7398C115.89 16.7584 115.862 16.705 115.862 16.528H109.862C109.862 18.2928 110.488 19.9737 111.91 21.2177L115.861 16.7023ZM115.862 16.528C115.862 16.3115 115.896 16.2515 115.882 16.2842C115.875 16.3006 115.861 16.3285 115.838 16.36C115.814 16.3915 115.791 16.4131 115.777 16.4243L111.994 11.7677C110.46 13.0135 109.862 14.7701 109.862 16.528H115.862ZM115.861 16.3537C115.809 16.3995 115.98 16.2 116.83 16.2V10.2C115.119 10.2 113.328 10.5978 111.91 11.8383L115.861 16.3537ZM116.83 16.2H150.046V10.2H116.83V16.2ZM150.046 16.2C150.895 16.2 151.066 16.3995 151.014 16.3537L154.965 11.8383C153.547 10.5978 151.756 10.2 150.046 10.2V16.2ZM151.098 16.4243C151.084 16.4131 151.061 16.3915 151.038 16.36C151.014 16.3285 151 16.3006 150.993 16.2842C150.979 16.2515 151.014 16.3115 151.014 16.528H157.014C157.014 14.7701 156.415 13.0135 154.881 11.7677L151.098 16.4243ZM151.014 16.528C151.014 16.6069 151.007 16.6536 151.002 16.6742C150.999 16.6938 150.997 16.6929 151.003 16.6789C151.01 16.6644 151.019 16.6492 151.028 16.6377C151.036 16.6266 151.036 16.6294 151.018 16.6442L154.833 21.2758C156.318 20.0528 157.014 18.3569 157.014 16.528H151.014ZM151.034 16.6317C151.066 16.6051 150.869 16.792 150.046 16.792V22.792C151.696 22.792 153.419 22.4243 154.817 21.2883L151.034 16.6317ZM150.046 16.792H137.694V22.792H150.046V16.792ZM134.694 19.792V54.8H140.694V19.792H134.694ZM134.694 54.8C134.694 55.1555 134.61 55.261 134.477 55.3803L138.478 59.8517C139.966 58.5204 140.694 56.7485 140.694 54.8H134.694ZM134.484 55.3738C134.391 55.4566 134.138 55.64 133.406 55.64V61.64C135.233 61.64 137.028 61.1407 138.471 59.8582L134.484 55.3738ZM170.582 55.76L169.141 58.3913L169.16 58.4015L169.178 58.4114L170.582 55.76ZM162.39 47.632L159.747 49.0505L159.75 49.0572L159.754 49.064L162.39 47.632ZM162.39 23.632L165.026 25.064L165.03 25.0572L165.033 25.0505L162.39 23.632ZM170.582 15.504L171.999 18.1485L172.01 18.1424L170.582 15.504ZM196.374 15.504L194.933 18.1353L194.952 18.1455L194.97 18.1554L196.374 15.504ZM204.63 23.632L201.987 25.0505L201.99 25.0572L201.994 25.064L204.63 23.632ZM204.63 47.632L207.266 49.064L207.27 49.0572L207.273 49.0505L204.63 47.632ZM196.374 55.76L197.791 58.4045L197.802 58.3984L196.374 55.76ZM194.838 47.568L197.039 49.6069L197.046 49.5989L197.053 49.5908L194.838 47.568ZM194.646 23.632L192.477 25.7049L192.485 25.7132L192.493 25.7214L194.646 23.632ZM171.99 23.76L169.728 21.7891L169.726 21.7915L171.99 23.76ZM172.182 47.568L169.967 49.5908L169.974 49.5989L169.981 49.6069L172.182 47.568ZM183.51 55.64C178.902 55.64 175.096 54.7552 171.986 53.1086L169.178 58.4114C173.321 60.6048 178.134 61.64 183.51 61.64V55.64ZM172.023 53.1287C168.923 51.4314 166.617 49.1294 165.026 46.2L159.754 49.064C161.917 53.0466 165.073 56.1633 169.141 58.3913L172.023 53.1287ZM165.033 46.2135C163.421 43.2085 162.574 39.6972 162.574 35.6H156.574C156.574 40.5481 157.604 45.0582 159.747 49.0505L165.033 46.2135ZM162.574 35.6C162.574 31.5019 163.421 28.0184 165.026 25.064L159.754 22.2C157.604 26.1575 156.574 30.6528 156.574 35.6H162.574ZM165.033 25.0505C166.624 22.0854 168.922 19.7966 171.999 18.1484L169.165 12.8596C165.074 15.0514 161.91 18.1812 159.747 22.2135L165.033 25.0505ZM172.01 18.1424C175.115 16.4622 178.912 15.56 183.51 15.56V9.56C178.124 9.56 173.303 10.6205 169.154 12.8656L172.01 18.1424ZM183.51 15.56C188.109 15.56 191.879 16.4626 194.933 18.1353L197.815 12.8727C193.701 10.62 188.895 9.56 183.51 9.56V15.56ZM194.97 18.1554C198.089 19.8065 200.401 22.0951 201.987 25.0505L207.273 22.2135C205.105 18.1716 201.912 15.0415 197.778 12.8526L194.97 18.1554ZM201.994 25.064C203.599 28.0184 204.446 31.5019 204.446 35.6H210.446C210.446 30.6528 209.416 26.1575 207.266 22.2L201.994 25.064ZM204.446 35.6C204.446 39.6972 203.599 43.2085 201.987 46.2135L207.273 49.0505C209.416 45.0582 210.446 40.5481 210.446 35.6H204.446ZM201.994 46.2C200.408 49.1199 198.088 51.4214 194.946 53.1216L197.802 58.3984C201.914 56.1733 205.098 53.0561 207.266 49.064L201.994 46.2ZM194.957 53.1156C191.898 54.7547 188.119 55.64 183.51 55.64V61.64C188.885 61.64 193.682 60.6053 197.791 58.4044L194.957 53.1156ZM183.51 54.92C189.003 54.92 193.656 53.2576 197.039 49.6069L192.637 45.5291C190.644 47.6811 187.745 48.92 183.51 48.92V54.92ZM197.053 49.5908C200.369 45.9597 201.87 41.1789 201.87 35.6H195.87C195.87 40.0905 194.683 43.2883 192.623 45.5452L197.053 49.5908ZM201.87 35.6C201.87 29.952 200.288 25.1379 196.799 21.5426L192.493 25.7214C194.636 27.9287 195.87 31.0933 195.87 35.6H201.87ZM196.815 21.5591C193.334 17.9177 188.536 16.28 182.87 16.28V22.28C187.358 22.28 190.411 23.5436 192.477 25.7049L196.815 21.5591ZM182.87 16.28C177.518 16.28 173.002 18.0329 169.728 21.7891L174.252 25.7309C176.184 23.5138 178.92 22.28 182.87 22.28V16.28ZM169.726 21.7915C166.575 25.4155 165.15 30.1273 165.15 35.6H171.15C171.15 31.1741 172.285 27.9925 174.254 25.7285L169.726 21.7915ZM165.15 35.6C165.15 41.1788 166.651 45.9597 169.967 49.5908L174.397 45.5452C172.337 43.2883 171.15 40.0905 171.15 35.6H165.15ZM169.981 49.6069C173.364 53.2576 178.017 54.92 183.51 54.92V48.92C179.275 48.92 176.376 47.6811 174.383 45.5291L169.981 49.6069ZM220.236 57.616L218.243 59.8582L218.243 59.8582L220.236 57.616ZM221.644 15.696L219.576 13.5223L219.563 13.5351L219.55 13.548L221.644 15.696ZM254.604 40.912L252.704 38.5901L252.704 38.5901L254.604 40.912ZM227.596 44.944V41.944H224.596V44.944H227.596ZM226.38 57.616L228.373 59.8582L228.38 59.8517L226.38 57.616ZM228.3 20.624L226.096 18.5892L226.052 18.6367L226.01 18.6862L228.3 20.624ZM227.596 38.352H224.596V41.352H227.596V38.352ZM223.308 55.64C222.575 55.64 222.322 55.4566 222.229 55.3738L218.243 59.8582C219.686 61.1407 221.481 61.64 223.308 61.64V55.64ZM222.229 55.3738C222.183 55.3324 222.165 55.3039 222.149 55.2641C222.128 55.2134 222.084 55.076 222.084 54.8H216.084C216.084 56.698 216.728 58.5116 218.243 59.8582L222.229 55.3738ZM222.084 54.8V22.672H216.084V54.8H222.084ZM222.084 22.672C222.084 20.2773 222.75 18.8081 223.738 17.844L219.55 13.548C217.125 15.9119 216.084 19.0933 216.084 22.672H222.084ZM223.712 17.8697C224.763 16.8697 226.355 16.2 228.876 16.2V10.2C225.253 10.2 222.024 11.1943 219.576 13.5223L223.712 17.8697ZM228.876 16.2H239.692V10.2H228.876V16.2ZM239.692 16.2C245.826 16.2 249.976 17.4803 252.606 19.5775L256.346 14.8865C252.235 11.6077 246.529 10.2 239.692 10.2V16.2ZM252.606 19.5775C255.113 21.577 256.532 24.5696 256.532 29.072H262.532C262.532 23.1638 260.58 18.263 256.346 14.8865L252.606 19.5775ZM256.532 29.072C256.532 33.6013 255.137 36.5999 252.704 38.5901L256.504 43.2339C260.642 39.8481 262.532 34.9534 262.532 29.072H256.532ZM252.704 38.5901C250.168 40.6653 246.121 41.944 240.076 41.944V47.944C246.831 47.944 252.469 46.5347 256.504 43.2339L252.704 38.5901ZM240.076 41.944H227.596V47.944H240.076V41.944ZM224.596 44.944V54.8H230.596V44.944H224.596ZM224.596 54.8C224.596 55.1555 224.513 55.261 224.38 55.3803L228.38 59.8517C229.868 58.5204 230.596 56.7485 230.596 54.8H224.596ZM224.387 55.3738C224.294 55.4566 224.041 55.64 223.308 55.64V61.64C225.135 61.64 226.93 61.1407 228.373 59.8582L224.387 55.3738ZM240.012 41.352C244.013 41.352 247.573 40.5143 250.16 38.3201C252.843 36.0456 253.956 32.7692 253.956 29.072H247.956C247.956 31.5615 247.245 32.9251 246.28 33.7439C245.219 34.643 243.307 35.352 240.012 35.352V41.352ZM253.956 29.072C253.956 25.3748 252.843 22.0984 250.16 19.8239C247.573 17.6297 244.013 16.792 240.012 16.792V22.792C243.307 22.792 245.219 23.501 246.28 24.4001C247.245 25.2189 247.956 26.5825 247.956 29.072H253.956ZM240.012 16.792H230.348V22.792H240.012V16.792ZM230.348 16.792C228.778 16.792 227.252 17.3359 226.096 18.5892L230.504 22.6588C230.49 22.6739 230.466 22.6971 230.43 22.7218C230.395 22.7466 230.358 22.766 230.325 22.7794C230.256 22.8076 230.248 22.792 230.348 22.792V16.792ZM226.01 18.6862C224.943 19.9467 224.596 21.4868 224.596 22.928H230.596C230.596 22.6711 230.627 22.5377 230.641 22.4927C230.652 22.4568 230.645 22.4971 230.59 22.5618L226.01 18.6862ZM224.596 22.928V38.352H230.596V22.928H224.596ZM227.596 41.352H240.012V35.352H227.596V41.352ZM279.435 56.592L278.36 59.3929L278.374 59.3983L278.389 59.4037L279.435 56.592ZM269.899 50.576L267.778 52.6973L267.795 52.7144L267.812 52.7313L269.899 50.576ZM275.531 46.16L277.556 43.9466L277.497 43.8926L277.435 43.8418L275.531 46.16ZM282.635 50.448L281.582 53.257L281.608 53.2668L281.634 53.2762L282.635 50.448ZM297.803 50.512L299.336 53.0906L299.362 53.0755L299.387 53.0599L297.803 50.512ZM297.611 42L295.933 44.4865L295.954 44.5011L295.976 44.5153L297.611 42ZM288.907 38.928L289.548 35.9973L289.548 35.9972L288.907 38.928ZM274.827 33.36L272.961 35.7093L272.97 35.716L272.978 35.7225L274.827 33.36ZM272.779 18.32L275.057 20.2724L275.068 20.2592L275.079 20.2458L272.779 18.32ZM279.179 14.096L280.194 16.9192L280.206 16.9148L280.218 16.9103L279.179 14.096ZM299.211 14.544L298.025 17.2995L298.048 17.3093L298.071 17.3188L299.211 14.544ZM306.315 19.984L308.866 18.4049L308.826 18.3408L308.783 18.2787L306.315 19.984ZM307.147 22.288L310.145 22.4079L310.147 22.348V22.288H307.147ZM305.547 25.04L307.255 27.5066L307.301 27.4742L307.347 27.44L305.547 25.04ZM300.363 24.08L298.053 25.9941L298.058 26.0006L300.363 24.08ZM295.371 20.56L294.217 23.3292L294.227 23.3334L294.237 23.3375L295.371 20.56ZM281.547 20.688L282.969 23.3294L282.981 23.3231L282.993 23.3166L281.547 20.688ZM281.483 28.496L279.834 31.0022L279.872 31.0272L279.911 31.051L281.483 28.496ZM290.059 31.44L290.754 28.5216L290.745 28.5194L290.736 28.5173L290.059 31.44ZM300.875 35.088L299.533 37.7713L299.55 37.7797L299.567 37.7879L300.875 35.088ZM306.827 39.824L304.34 41.5014L304.353 41.5211L304.367 41.5405L306.827 39.824ZM306.571 52.88L308.924 54.7407L308.935 54.7276L308.945 54.7143L306.571 52.88ZM300.427 57.168L301.47 59.9807L301.49 59.9733L301.51 59.9657L300.427 57.168ZM291.211 55.64C287.362 55.64 283.794 55.0129 280.481 53.7803L278.389 59.4037C282.415 60.9018 286.697 61.64 291.211 61.64V55.64ZM280.51 53.7911C277.198 52.5205 274.369 50.7281 271.986 48.4207L267.812 52.7313C270.805 55.6292 274.333 57.8475 278.36 59.3929L280.51 53.7911ZM272.02 48.4547C271.972 48.4066 271.946 48.3726 271.933 48.3545C271.921 48.3369 271.92 48.3325 271.924 48.3411C271.928 48.3501 271.933 48.3641 271.936 48.3801C271.939 48.396 271.939 48.4039 271.939 48.4H265.939C265.939 50.1023 266.647 51.5664 267.778 52.6973L272.02 48.4547ZM271.939 48.4C271.939 48.3949 271.939 48.3908 271.941 48.3835C271.943 48.3757 271.949 48.3531 271.968 48.3138C272.006 48.2329 272.105 48.0688 272.34 47.8333L268.098 43.5907C266.85 44.8385 265.939 46.4558 265.939 48.4H271.939ZM272.34 47.8333C272.472 47.7013 272.542 47.6708 272.538 47.6724C272.537 47.6731 272.525 47.6781 272.505 47.6824C272.485 47.6868 272.469 47.688 272.459 47.688V41.688C270.703 41.688 269.228 42.4606 268.098 43.5907L272.34 47.8333ZM272.459 47.688C272.314 47.688 272.336 47.6489 272.571 47.7614C272.803 47.8728 273.154 48.0896 273.627 48.4782L277.435 43.8418C276.09 42.7369 274.381 41.688 272.459 41.688V47.688ZM273.506 48.3734C275.814 50.4853 278.518 52.1083 281.582 53.257L283.688 47.639C281.29 46.7397 279.258 45.5041 277.556 43.9466L273.506 48.3734ZM281.634 53.2762C284.729 54.3713 287.926 54.92 291.211 54.92V48.92C288.608 48.92 286.087 48.4874 283.636 47.6198L281.634 53.2762ZM291.211 54.92C294.302 54.92 297.109 54.4147 299.336 53.0906L296.27 47.9334C295.339 48.4867 293.752 48.92 291.211 48.92V54.92ZM299.387 53.0599C301.78 51.5724 303.171 49.2783 303.171 46.416H297.171C297.171 47.0524 296.984 47.4889 296.219 47.9641L299.387 53.0599ZM303.171 46.416C303.171 43.4411 301.694 41.0758 299.246 39.4847L295.976 44.5153C296.942 45.1429 297.171 45.7216 297.171 46.416H303.171ZM299.289 39.5135C297.086 38.0259 293.711 36.908 289.548 35.9973L288.266 41.8587C292.295 42.74 294.723 43.6701 295.933 44.4865L299.289 39.5135ZM289.548 35.9972C283.258 34.6226 279.09 32.8864 276.676 30.9975L272.978 35.7225C276.452 38.4416 281.671 40.4174 288.266 41.8588L289.548 35.9972ZM276.693 31.0107C274.49 29.2615 273.475 27.1528 273.475 24.464H267.475C267.475 29.0286 269.361 32.8505 272.961 35.7093L276.693 31.0107ZM273.475 24.464C273.475 22.895 273.974 21.5352 275.057 20.2724L270.501 16.3676C268.512 18.6888 267.475 21.425 267.475 24.464H273.475ZM275.079 20.2458C276.208 18.8976 277.857 17.7589 280.194 16.9192L278.164 11.2728C275.04 12.3958 272.422 14.073 270.479 16.3942L275.079 20.2458ZM280.218 16.9103C282.6 16.0307 285.396 15.56 288.651 15.56V9.56C284.823 9.56 281.304 10.1132 278.14 11.2817L280.218 16.9103ZM288.651 15.56C292.286 15.56 295.39 16.1653 298.025 17.2995L300.397 11.7885C296.888 10.2774 292.952 9.56 288.651 9.56V15.56ZM298.071 17.3188C300.747 18.4188 302.611 19.9008 303.847 21.6893L308.783 18.2787C306.776 15.3739 303.904 13.2292 300.351 11.7692L298.071 17.3188ZM303.764 21.5631C303.962 21.8823 304.066 22.1094 304.117 22.2509C304.169 22.3941 304.147 22.3963 304.147 22.288H310.147C310.147 20.837 309.544 19.5002 308.866 18.4049L303.764 21.5631ZM304.149 22.1681C304.147 22.2158 304.141 22.2349 304.121 22.2681C304.094 22.3154 304.002 22.4485 303.747 22.64L307.347 27.44C308.934 26.2501 310.059 24.5576 310.145 22.4079L304.149 22.1681ZM303.839 22.5734C303.825 22.5836 303.79 22.616 303.627 22.616V28.616C304.914 28.616 306.16 28.2644 307.255 27.5066L303.839 22.5734ZM303.627 22.616C303.203 22.616 302.956 22.5056 302.668 22.1594L298.058 26.0006C299.477 27.7024 301.406 28.616 303.627 28.616V22.616ZM302.673 22.1659C301.072 20.2342 298.977 18.7916 296.505 17.7825L294.237 23.3375C295.946 24.0351 297.179 24.9391 298.053 25.9941L302.673 22.1659ZM296.525 17.7908C294.077 16.771 291.441 16.28 288.651 16.28V22.28C290.725 22.28 292.569 22.6423 294.217 23.3292L296.525 17.7908ZM288.651 16.28C285.371 16.28 282.431 16.7782 280.101 18.0594L282.993 23.3166C284.077 22.7205 285.872 22.28 288.651 22.28V16.28ZM280.125 18.0466C277.683 19.3612 276.051 21.5345 276.051 24.464H282.051C282.051 24.1508 282.083 23.8068 282.969 23.3294L280.125 18.0466ZM276.051 24.464C276.051 27.3045 277.561 29.5067 279.834 31.0022L283.132 25.9897C282.162 25.3519 282.051 24.8662 282.051 24.464H276.051ZM279.911 31.051C282.018 32.3478 285.287 33.4143 289.382 34.3627L290.736 28.5173C286.724 27.5884 284.276 26.6922 283.055 25.941L279.911 31.051ZM289.364 34.3584C293.721 35.3958 297.084 36.5467 299.533 37.7713L302.217 32.4047C299.204 30.8986 295.357 29.6175 290.754 28.5216L289.364 34.3584ZM299.567 37.7879C301.991 38.9619 303.488 40.2391 304.34 41.5014L309.314 38.1466C307.691 35.7396 305.221 33.8595 302.183 32.3881L299.567 37.7879ZM304.367 41.5405C305.246 42.8014 305.747 44.3782 305.747 46.416H311.747C311.747 43.3338 310.968 40.5159 309.287 38.1075L304.367 41.5405ZM305.747 46.416C305.747 48.2021 305.231 49.7077 304.197 51.0457L308.945 54.7143C310.812 52.2976 311.747 49.4939 311.747 46.416H305.747ZM304.218 51.0193C303.163 52.3527 301.596 53.4985 299.344 54.3703L301.51 59.9657C304.549 58.7895 307.077 57.0767 308.924 54.7407L304.218 51.0193ZM299.384 54.3553C297.142 55.187 294.436 55.64 291.211 55.64V61.64C294.983 61.64 298.422 61.1116 301.47 59.9807L299.384 54.3553ZM323.074 55.44L325.143 53.2676L325.143 53.2676L323.074 55.44ZM321.538 13.584L323.532 15.8262L323.532 15.8262L321.538 13.584ZM327.682 13.648L325.623 15.829L325.685 15.8877L325.75 15.9427L327.682 13.648ZM329.602 50.576L327.312 52.5138L327.354 52.5633L327.398 52.6108L329.602 50.576ZM355.074 52.304L353.099 54.5617L353.14 54.5978L353.183 54.6323L355.074 52.304ZM355.01 57.168L356.902 59.4963L356.91 59.4901L356.918 59.4838L355.01 57.168ZM330.626 55C327.907 55 326.221 54.2943 325.143 53.2676L321.006 57.6124C323.511 59.9991 326.86 61 330.626 61V55ZM325.143 53.2676C324.083 52.2581 323.386 50.7344 323.386 48.272H317.386C317.386 51.9536 318.482 55.2086 321.006 57.6124L325.143 53.2676ZM323.386 48.272V16.4H317.386V48.272H323.386ZM323.386 16.4C323.386 16.124 323.43 15.9865 323.451 15.9359C323.467 15.8961 323.485 15.8676 323.532 15.8262L319.545 11.3418C318.03 12.6884 317.386 14.502 317.386 16.4H323.386ZM323.532 15.8262C323.625 15.7434 323.878 15.56 324.61 15.56V9.56C322.783 9.56 320.988 10.0593 319.545 11.3418L323.532 15.8262ZM324.61 15.56C325.296 15.56 325.525 15.7367 325.623 15.829L329.742 11.467C328.304 10.1087 326.485 9.56 324.61 9.56V15.56ZM325.75 15.9427C325.826 16.0069 325.843 16.0433 325.85 16.0605C325.861 16.0845 325.898 16.1798 325.898 16.4H331.898C331.898 14.4504 331.167 12.6599 329.615 11.3533L325.75 15.9427ZM325.898 16.4V48.272H331.898V16.4H325.898ZM325.898 48.272C325.898 49.7132 326.246 51.2533 327.312 52.5138L331.893 48.6382C331.947 48.7029 331.954 48.7432 331.944 48.7073C331.93 48.6623 331.898 48.5289 331.898 48.272H325.898ZM327.398 52.6108C328.555 53.8641 330.08 54.408 331.65 54.408V48.408C331.55 48.408 331.558 48.3924 331.628 48.4206C331.661 48.434 331.697 48.4534 331.733 48.4782C331.768 48.5029 331.793 48.5261 331.807 48.5412L327.398 52.6108ZM331.65 54.408H352.13V48.408H331.65V54.408ZM352.13 54.408C352.98 54.408 353.151 54.6075 353.099 54.5617L357.05 50.0463C355.632 48.8059 353.841 48.408 352.13 48.408V54.408ZM353.183 54.6323C353.169 54.6211 353.146 54.5995 353.122 54.568C353.099 54.5365 353.084 54.5086 353.078 54.4922C353.064 54.4595 353.098 54.5195 353.098 54.736H359.098C359.098 52.9781 358.5 51.2215 356.966 49.9757L353.183 54.6323ZM353.098 54.736C353.098 54.8149 353.092 54.8616 353.087 54.8822C353.084 54.9018 353.082 54.9009 353.088 54.8869C353.095 54.8724 353.104 54.8572 353.113 54.8457C353.121 54.8346 353.121 54.8374 353.103 54.8522L356.918 59.4838C358.403 58.2608 359.098 56.5649 359.098 54.736H353.098ZM353.119 54.8397C353.151 54.8131 352.954 55 352.13 55V61C353.781 61 355.504 60.6323 356.902 59.4963L353.119 54.8397ZM352.13 55H330.626V61H352.13V55ZM371.999 55.76L370.559 58.3913L370.577 58.4015L370.596 58.4114L371.999 55.76ZM363.807 47.632L361.164 49.0505L361.168 49.0572L361.171 49.064L363.807 47.632ZM363.807 23.632L366.444 25.064L366.447 25.0572L366.451 25.0505L363.807 23.632ZM371.999 15.504L373.416 18.1485L373.427 18.1424L371.999 15.504ZM397.791 15.504L396.351 18.1353L396.369 18.1455L396.388 18.1554L397.791 15.504ZM406.047 23.632L403.404 25.0505L403.408 25.0572L403.411 25.064L406.047 23.632ZM406.047 47.632L408.684 49.064L408.687 49.0572L408.691 49.0505L406.047 47.632ZM397.791 55.76L399.208 58.4045L399.219 58.3984L397.791 55.76ZM396.255 47.568L398.456 49.6069L398.464 49.5989L398.471 49.5908L396.255 47.568ZM396.063 23.632L393.895 25.7049L393.903 25.7132L393.911 25.7214L396.063 23.632ZM373.407 23.76L371.146 21.7891L371.144 21.7915L373.407 23.76ZM373.599 47.568L371.384 49.5908L371.391 49.5989L371.399 49.6069L373.599 47.568ZM384.927 55.64C380.32 55.64 376.513 54.7552 373.403 53.1086L370.596 58.4114C374.739 60.6048 379.551 61.64 384.927 61.64V55.64ZM373.44 53.1287C370.341 51.4314 368.035 49.1294 366.444 46.2L361.171 49.064C363.335 53.0466 366.49 56.1633 370.559 58.3913L373.44 53.1287ZM366.451 46.2135C364.838 43.2085 363.991 39.6972 363.991 35.6H357.991C357.991 40.5481 359.022 45.0582 361.164 49.0505L366.451 46.2135ZM363.991 35.6C363.991 31.5019 364.839 28.0184 366.444 25.064L361.171 22.2C359.022 26.1575 357.991 30.6528 357.991 35.6H363.991ZM366.451 25.0505C368.042 22.0854 370.34 19.7966 373.416 18.1484L370.583 12.8596C366.491 15.0514 363.328 18.1812 361.164 22.2135L366.451 25.0505ZM373.427 18.1424C376.532 16.4622 380.33 15.56 384.927 15.56V9.56C379.541 9.56 374.72 10.6205 370.572 12.8656L373.427 18.1424ZM384.927 15.56C389.526 15.56 393.296 16.4626 396.351 18.1353L399.232 12.8727C395.119 10.62 390.312 9.56 384.927 9.56V15.56ZM396.388 18.1554C399.507 19.8065 401.818 22.0951 403.404 25.0505L408.691 22.2135C406.522 18.1716 403.33 15.0415 399.195 12.8526L396.388 18.1554ZM403.411 25.064C405.016 28.0184 405.863 31.5019 405.863 35.6H411.863C411.863 30.6528 410.833 26.1575 408.684 22.2L403.411 25.064ZM405.863 35.6C405.863 39.6972 405.016 43.2085 403.404 46.2135L408.691 49.0505C410.833 45.0582 411.863 40.5481 411.863 35.6H405.863ZM403.411 46.2C401.825 49.1199 399.505 51.4214 396.364 53.1216L399.219 58.3984C403.331 56.1733 406.515 53.0561 408.684 49.064L403.411 46.2ZM396.375 53.1156C393.315 54.7547 389.536 55.64 384.927 55.64V61.64C390.303 61.64 395.1 60.6053 399.208 58.4044L396.375 53.1156ZM384.927 54.92C390.421 54.92 395.074 53.2576 398.456 49.6069L394.055 45.5291C392.061 47.6811 389.162 48.92 384.927 48.92V54.92ZM398.471 49.5908C401.786 45.9597 403.287 41.1789 403.287 35.6H397.287C397.287 40.0905 396.101 43.2883 394.04 45.5452L398.471 49.5908ZM403.287 35.6C403.287 29.952 401.706 25.1379 398.216 21.5426L393.911 25.7214C396.053 27.9287 397.287 31.0933 397.287 35.6H403.287ZM398.232 21.5591C394.751 17.9177 389.954 16.28 384.287 16.28V22.28C388.776 22.28 391.829 23.5436 393.895 25.7049L398.232 21.5591ZM384.287 16.28C378.936 16.28 374.419 18.0329 371.146 21.7891L375.669 25.7309C377.601 23.5138 380.338 22.28 384.287 22.28V16.28ZM371.144 21.7915C367.992 25.4155 366.567 30.1273 366.567 35.6H372.567C372.567 31.1741 373.703 27.9925 375.671 25.7285L371.144 21.7915ZM366.567 35.6C366.567 41.1788 368.069 45.9597 371.384 49.5908L375.815 45.5452C373.754 43.2883 372.567 40.0905 372.567 35.6H366.567ZM371.399 49.6069C374.781 53.2576 379.434 54.92 384.927 54.92V48.92C380.693 48.92 377.794 47.6811 375.8 45.5291L371.399 49.6069ZM431.866 57.616L433.859 55.3738L433.859 55.3738L431.866 57.616ZM430.714 19.792H433.714V16.792H430.714V19.792ZM415.418 18.96L413.442 21.2177L413.517 21.2829L413.596 21.3431L415.418 18.96ZM415.418 14.096L417.31 16.4243L417.352 16.3898L417.393 16.3537L415.418 14.096ZM454.522 14.096L452.546 16.3537L452.588 16.3898L452.63 16.4243L454.522 14.096ZM454.458 18.96L456.35 21.2883L456.357 21.2821L456.365 21.2758L454.458 18.96ZM439.226 19.792V16.792H436.226V19.792H439.226ZM438.01 57.616L440.003 59.8582L440.01 59.8517L438.01 57.616ZM434.938 55.64C434.205 55.64 433.952 55.4566 433.859 55.3738L429.873 59.8582C431.316 61.1407 433.111 61.64 434.938 61.64V55.64ZM433.859 55.3738C433.813 55.3324 433.795 55.3039 433.779 55.2641C433.758 55.2134 433.714 55.076 433.714 54.8H427.714C427.714 56.698 428.358 58.5116 429.873 59.8582L433.859 55.3738ZM433.714 54.8V19.792H427.714V54.8H433.714ZM430.714 16.792H418.362V22.792H430.714V16.792ZM418.362 16.792C417.552 16.792 417.284 16.6105 417.24 16.5769L413.596 21.3431C415.002 22.4188 416.697 22.792 418.362 22.792V16.792ZM417.393 16.7023C417.384 16.6939 417.387 16.6954 417.396 16.7075C417.405 16.7199 417.412 16.7323 417.415 16.7398C417.423 16.7584 417.394 16.705 417.394 16.528H411.394C411.394 18.2928 412.021 19.9737 413.442 21.2177L417.393 16.7023ZM417.394 16.528C417.394 16.3115 417.429 16.2515 417.415 16.2842C417.408 16.3006 417.394 16.3285 417.37 16.36C417.346 16.3915 417.324 16.4131 417.31 16.4243L413.526 11.7677C411.993 13.0135 411.394 14.7701 411.394 16.528H417.394ZM417.393 16.3537C417.341 16.3995 417.512 16.2 418.362 16.2V10.2C416.652 10.2 414.86 10.5978 413.442 11.8383L417.393 16.3537ZM418.362 16.2H451.578V10.2H418.362V16.2ZM451.578 16.2C452.428 16.2 452.599 16.3995 452.546 16.3537L456.497 11.8383C455.08 10.5978 453.288 10.2 451.578 10.2V16.2ZM452.63 16.4243C452.616 16.4131 452.594 16.3915 452.57 16.36C452.546 16.3285 452.532 16.3006 452.525 16.2842C452.511 16.2515 452.546 16.3115 452.546 16.528H458.546C458.546 14.7701 457.947 13.0135 456.414 11.7677L452.63 16.4243ZM452.546 16.528C452.546 16.6069 452.539 16.6536 452.535 16.6742C452.531 16.6938 452.529 16.6929 452.536 16.6789C452.542 16.6644 452.551 16.6492 452.56 16.6377C452.569 16.6266 452.569 16.6294 452.551 16.6442L456.365 21.2758C457.85 20.0528 458.546 18.3569 458.546 16.528H452.546ZM452.566 16.6317C452.599 16.6051 452.402 16.792 451.578 16.792V22.792C453.229 22.792 454.952 22.4243 456.35 21.2883L452.566 16.6317ZM451.578 16.792H439.226V22.792H451.578V16.792ZM436.226 19.792V54.8H442.226V19.792H436.226ZM436.226 54.8C436.226 55.1555 436.143 55.261 436.01 55.3803L440.01 59.8517C441.498 58.5204 442.226 56.7485 442.226 54.8H436.226ZM436.017 55.3738C435.924 55.4566 435.671 55.64 434.938 55.64V61.64C436.765 61.64 438.56 61.1407 440.003 59.8582L436.017 55.3738Z" fill="url(#paint0_linear_180_123)" mask="url(#path-1-outside-1_180_123)"/>
<defs>
<linearGradient id="paint0_linear_180_123" x1="3" y1="11" x2="3" y2="57" gradientUnits="userSpaceOnUse">
<stop stop-color="#FFD700"/>
<stop offset="1" stop-color="#FFD700"/>
</linearGradient>
</defs>
</svg>
